# xmcd
#
# Track frame offsets: 
#        150
#        13142
#        26750
#        41282
#        54285
#        68532
#        82830
#        94485
#        107180
#        121195
#        134902
#        147762
#        161665
#        174932
#        187290
#        200040
#        212527
#        226375
#        237740
#        249695
#        260770
#        276457
#        289572
#
# Disc length: 4019 seconds
#
# Revision: 5
# Processed by: cddbd v1.5.2PL0 Copyright (c) Steve Scherf et al.
# Submitted via: ExactAudioCopy v0.99pb4
#
DISCID=5d0fb117
DTITLE=Count Basie - America's #1 Band: The Columbia Years [disc 2]
DYEAR=2003
DGENRE=Swing
TTITLE0=Count Basie Octet - Song of the Islands
TTITLE1=Count Basie Octet - These Foolish Things (Remind Me of You)
TTITLE2=Count Basie Octet - I'm Confessin' (That I Love You)
TTITLE3=Count Basie Octet - One o'Clock Jump
TTITLE4=Count Basie Octet - I Ain't Got Nobody
TTITLE5=Count Basie Octet - Little White Lies
TTITLE6=Count Basie Octet - I'll Remember April
TTITLE7=Count Basie Octet - Tootie
TTITLE8=Count Basie and HO - Rock-a-Bye Basie
TTITLE9=Count Basie and HO - One Hour
TTITLE10=Count Basie and HO - Taxi War Dance
TTITLE11=Count Basie and HO - Twelfth Street Rag
TTITLE12=Count Basie and HO - Miss Thing, Part 1
TTITLE13=Count Basie and HO - Miss Thing, Part 2
TTITLE14=Count Basie and HO - Nobody Knows [take 1]
TTITLE15=Count Basie and HO - Pound Cake
TTITLE16=Count Basie and HO - Song of the Islands
TTITLE17=Count Basie and HO - Clap Hands! Here Comes Charlie
TTITLE18=Count Basie and HO - Tickle Toe
TTITLE19=Count Basie and HO - Louisiana
TTITLE20=Count Basie and HO - Easy Does It
TTITLE21=Count Basie and HO - Somebody Stole My Gal
TTITLE22=Count Basie and HO - I Want a Little Girl
EXTD=William "Count" Basie [1904/1984]: piano, bandleader\nCompilation
EXTD=produced by Orrin Keepnews.\nDigital transfers from acetates and
EXTD=metal parts by Andreas Meyer, Sony Studios, New York US-NY.\nDig
EXTD=ital transfers from analog tape, digital editing, sound enhanceme
EXTD=nt, and digital mastering by Mark Wilder, Sony Studios, New York 
EXTD=US-NY.\nCEDAR noise reduction by Seth Foster, Sony Music Studios,
EXTD=New York US-NY.\n4CD: Columbia/Legacy C4K 87110 (2003-09-23), UP
EXTD=C 696998711020.
EXTT0=
EXTT1=
EXTT2=
EXTT3=
EXTT4=
EXTT5=
EXTT6=
EXTT7=
EXTT8=
EXTT9=
EXTT10=
EXTT11=
EXTT12=
EXTT13=
EXTT14=
EXTT15=
EXTT16=
EXTT17=
EXTT18=
EXTT19=
EXTT20=
EXTT21=
EXTT22=
PLAYORDER=
